<?xml version='1.0' encoding='utf-8'?><!DOCTYPE svg PUBLIC '-//W3C//DTD SVG 1.1//EN' 'http://www.w3.org/Graphics/SVG/1.1/DTD/svg11.dtd'><svg xmlns="http://www.w3.org/2000/svg" xmlns:xlink="http://www.w3.org/1999/xlink"><symbol viewBox="0 0 64 64" id="arrow" xmlns="http://www.w3.org/2000/svg"><path fill="#1D1D1B" d="M30.711 63.306c.393.393.907.589 1.422.589.514 0 1.028-.196 1.422-.589l21.237-21.239a2.012 2.012 0 0 0-2.844-2.844L34.144 57.029V2.248a2.01 2.01 0 1 0-4.022 0v54.781L12.314 39.223a2.01 2.01 0 1 0-2.843 2.844l21.24 21.239z"/></symbol><symbol viewBox="0 0 512 512" id="logo" xmlns="http://www.w3.org/2000/svg"><path d="M457.628 363.75v-215.5h-15l7.5-12.99L263.499 27.509l-7.5 12.99L248.5 27.51 61.872 135.26l7.5 12.99h-15v215.5h15l-7.5 12.99L248.5 484.49l7.5-12.99 7.5 12.99 186.623-107.747-7.499-12.988.003-.006h15.001v.001zM241 230.019L99.371 148.25 241 66.481v163.538zm30-163.538l141.629 81.769L271 230.019V66.481zM226 256L84.372 337.769V174.231L226 256zm15 25.981V445.52L99.371 363.75 241 281.981zm30 0l141.629 81.769L271 445.519V281.981zM286 256l141.629-81.769V337.77L286 256z" fill="#9dd8f9"/><path d="M457.628 363.75v-215.5h-15l7.5-12.99L263.499 27.509 256 40.498V471.5l7.5 12.99 186.623-107.747-7.499-12.988.003-.006h15.001v.001zM271 66.481l141.629 81.769L271 230.019V66.481zm0 379.038V281.981l141.629 81.769L271 445.519zm156.628-107.75L286 256l141.629-81.769v163.538h-.001z" fill="#2eacf0"/><g fill="#7467d3"><path d="M256 0c-22.332 0-40.5 18.168-40.5 40.5S233.668 81 256 81s40.5-18.168 40.5-40.5S278.332 0 256 0zM256 431c-22.332 0-40.5 18.168-40.5 40.5S233.668 512 256 512s40.5-18.168 40.5-40.5S278.332 431 256 431zM69.372 323.25c-22.332 0-40.5 18.168-40.5 40.5s18.168 40.5 40.5 40.5 40.5-18.168 40.5-40.5-18.169-40.5-40.5-40.5zM69.372 107.75c-22.332 0-40.5 18.168-40.5 40.5s18.168 40.5 40.5 40.5 40.5-18.168 40.5-40.5-18.169-40.5-40.5-40.5zM256 190c-36.393 0-66 29.607-66 66s29.607 66 66 66 66-29.607 66-66-29.607-66-66-66z"/></g><g fill="#5546a4"><path d="M256 0v81c22.332 0 40.5-18.168 40.5-40.5S278.332 0 256 0zM256 431v81c22.332 0 40.5-18.168 40.5-40.5S278.332 431 256 431zM442.628 323.25c-22.332 0-40.5 18.168-40.5 40.5s18.168 40.5 40.5 40.5 40.5-18.168 40.5-40.5-18.168-40.5-40.5-40.5zM442.628 107.75c-22.332 0-40.5 18.168-40.5 40.5s18.168 40.5 40.5 40.5 40.5-18.168 40.5-40.5-18.168-40.5-40.5-40.5zM256 190v132c36.393 0 66-29.607 66-66s-29.607-66-66-66z"/></g></symbol><symbol viewBox="0 0 56.48 56.48" id="mastercard" xmlns="http://www.w3.org/2000/svg"><path d="M15.051 25.812c-1.058 0-1.869.34-1.869.34l-.224 1.33s.669-.272 1.682-.272c.575 0 .995.064.995.531 0 .284-.051.389-.051.389s-.453-.037-.663-.037c-1.335 0-2.737.568-2.737 2.287 0 1.354.919 1.663 1.49 1.663 1.089 0 1.559-.706 1.583-.708l-.051.59h1.359l.606-4.25c-.001-1.805-1.574-1.863-2.12-1.863zm-.762 4.938c-.479 0-.604-.365-.604-.583 0-.422.229-.93 1.36-.93.264.001.292.028.336.036.03.26-.162 1.477-1.092 1.477zM19.959 27.237c.217 0 1.054.069 1.054.069l.195-1.362s-.542-.121-1.424-.121c-1.142 0-2.3.456-2.3 2.015 0 1.768 1.932 1.588 1.932 2.334 0 .496-.54.537-.956.537-.721 0-1.369-.246-1.371-.236l-.206 1.351c.037.01.437.188 1.732.188.347 0 2.334.09 2.334-1.961 0-1.918-1.839-1.539-1.839-2.31 0-.384.299-.504.849-.504zM23.206 27.411h.817l.197-1.452h-.77l.157-.9h-1.543c-.034.033-.911 5.076-.911 5.688 0 .911.511 1.315 1.23 1.308.563-.004 1.002-.16 1.157-.203l.193-1.312c-.106 0-.261.046-.398.046-.537 0-.596-.287-.562-.498l.433-2.677zM29.673 18.987h-2.754c-.37.5-.718 1.032-1.033 1.552h4.913a14.676 14.676 0 0 0-1.126-1.552zM51.161 36.445a.796.796 0 0 0-.075-.1.108.108 0 0 0-.043-.026.157.157 0 0 0 .105-.046.134.134 0 0 0 .016-.17.121.121 0 0 0-.064-.049.38.38 0 0 0-.127-.015h-.174v.505h.082v-.214h.047c.028 0 .051.006.064.018a.454.454 0 0 1 .086.117l.044.08h.101l-.062-.1zm-.182-.182h-.1v-.152h.094a.24.24 0 0 1 .08.009.079.079 0 0 1 .035.026.069.069 0 0 1 .012.039.07.07 0 0 1-.025.057c-.017.013-.05.021-.096.021zM31.634 22.062h-6.607c-.422.799-.702 1.403-.781 1.553h8.014a14.637 14.637 0 0 0-.626-1.553zM10.293 24.583l-1.521 4.51-.079-4.51H6.441l-1.234 7.349h1.489l.939-5.54.138 5.54h1.063l1.983-5.54-.879 5.54h1.58l1.217-7.349zM40.069 25.812c-1.06 0-1.87.34-1.87.34l-.225 1.33s.67-.272 1.682-.272c.575 0 .996.064.996.531 0 .284-.053.389-.053.389s-.452-.037-.664-.037c-1.334 0-2.735.568-2.735 2.287 0 1.354.92 1.663 1.49 1.663 1.088 0 1.558-.706 1.583-.708l-.051.59h1.358l.606-4.25c.003-1.805-1.571-1.863-2.117-1.863zm-.76 4.938c-.48 0-.604-.365-.604-.583 0-.422.229-.93 1.36-.93.263.001.291.028.336.036.029.26-.164 1.477-1.092 1.477zM51.21 31.255a.422.422 0 0 0-.176-.174.466.466 0 0 0-.635.64.448.448 0 0 0 .173.175.47.47 0 0 0 .638-.641zm-.065.427a.397.397 0 0 1-.338.198.395.395 0 0 1-.392-.392c0-.067.017-.132.054-.195a.39.39 0 0 1 .676.389z"/><path d="M50.963 31.648a.627.627 0 0 0-.074-.1.115.115 0 0 0-.043-.026.155.155 0 0 0 .104-.046.13.13 0 0 0 .016-.17.142.142 0 0 0-.062-.049.387.387 0 0 0-.128-.015H50.6v.504h.082v-.214h.047c.029 0 .052.006.066.017a.51.51 0 0 1 .086.119l.043.079h.101l-.062-.099zm-.18-.185h-.099v-.153h.092c.04 0 .066.003.082.008a.08.08 0 0 1 .033.027.074.074 0 0 1-.011.096c-.019.017-.05.022-.097.022zM45.313 25.885c-.691 0-1.204.943-1.204.943l.138-.867h-1.438l-.963 5.982h1.584c.451-2.556.533-4.629 1.604-4.25.189-.988.371-1.371.576-1.788 0 .001-.096-.02-.297-.02zM49.293 24.591l-.333 2.065s-.58-.803-1.49-.803c-1.415.001-2.593 1.706-2.593 3.664 0 1.265.629 2.504 1.913 2.504.925 0 1.437-.645 1.437-.645l-.067.551h1.501l1.18-7.339-1.548.003zm-1.957 5.93c-.556 0-.816-.466-.816-1.198 0-1.197.537-1.986 1.216-1.986.554.001.839.382.839 1.28 0 .815-.403 1.904-1.239 1.904z"/><path d="M55.026 9.939H1.454C.65 9.939 0 10.59 0 11.393v33.695c0 .803.65 1.454 1.454 1.454h53.572c.804 0 1.454-.651 1.454-1.454V11.393c0-.803-.65-1.454-1.454-1.454zm-3.617 26.579a.435.435 0 0 1-.173.175.475.475 0 0 1-.466 0 .469.469 0 0 1 .002-.815.494.494 0 0 1 .231-.06c.079 0 .155.021.229.06a.425.425 0 0 1 .175.174.477.477 0 0 1 .002.466zm1.048-8.277c.002 8.005-6.484 14.497-14.49 14.499a14.436 14.436 0 0 1-9.73-3.749 14.435 14.435 0 0 1-9.717 3.745c-8.001 0-14.495-6.493-14.495-14.495 0-7.97 6.443-14.444 14.402-14.496h.093c3.738 0 7.146 1.418 9.718 3.745a14.443 14.443 0 0 1 9.722-3.748c8.006-.003 14.497 6.486 14.499 14.492-.002.002-.002.003-.002.007z"/><path d="M26.753 37.406c.459.562.945 1.098 1.482 1.584l.037-.031-.001-.001h.003a14.488 14.488 0 0 0 1.472-1.552h-2.993zM28.727 29.45s.203-1 .203-1.407c0-1.017-.506-2.257-2.2-2.257-1.552.001-2.701 1.673-2.701 3.563 0 2.181 1.439 2.699 2.666 2.699 1.132 0 1.63-.254 1.63-.254l.272-1.488s-.861.38-1.639.38c-1.657 0-1.367-1.236-1.367-1.236h3.136zm-1.992-2.279c.871 0 .71.979.71 1.057h-1.713c0-.101.162-1.057 1.003-1.057zM35.965 25.991c.785 0 1.416.441 1.416.441l.252-1.635s-.934-.378-1.738-.378c-1.781 0-3.514 1.546-3.514 4.449 0 1.925.935 3.196 2.777 3.196.52 0 1.35-.211 1.35-.211l.276-1.684s-.756.379-1.276.379c-1.096-.001-1.535-.837-1.535-1.733 0-1.823.942-2.824 1.992-2.824zM24.818 34.361c.251.539.543 1.052.856 1.552h5.143c.312-.498.593-1.016.844-1.552h-6.843zM32.353 25.887c-.691 0-1.203.943-1.203.943l.139-.867h-1.437l-.963 5.982h1.584c.449-2.555.533-4.629 1.604-4.25.188-.989.369-1.372.574-1.79 0 0-.096-.02-.298-.018z"/></symbol><symbol viewBox="0 0 47.834 47.834" id="visa" xmlns="http://www.w3.org/2000/svg"><path d="M19.153 16.799l-2.431 14.266h3.888l2.433-14.266zM13.462 16.815l-3.808 9.729-.406-1.469c-.751-1.77-2.883-4.312-5.386-5.914l3.482 11.897 4.114-.007 6.123-14.239-4.119.003z"/><path d="M7.772 17.836c-.226-.869-.881-1.128-1.694-1.159H.05l-.05.284c4.691 1.138 7.795 3.88 9.083 7.177l-1.311-6.302zM30.923 19.534a7.178 7.178 0 0 1 2.91.546l.351.165.526-3.092c-.77-.289-1.977-.599-3.483-.599-3.842 0-6.55 1.935-6.571 4.708-.025 2.049 1.929 3.193 3.405 3.876 1.515.7 2.023 1.145 2.016 1.77-.012.955-1.208 1.393-2.325 1.393-1.557 0-2.384-.215-3.661-.747l-.501-.228-.547 3.193c.91.399 2.589.742 4.332.76 4.087 0 6.743-1.912 6.771-4.875.017-1.621-1.02-2.858-3.267-3.873-1.36-.662-2.192-1.102-2.184-1.77 0-.593.706-1.227 2.228-1.227zM44.688 16.815h-3.004c-.933 0-1.627.254-2.037 1.184l-5.773 13.074h4.083s.666-1.758.817-2.143l4.979.006c.116.498.474 2.137.474 2.137h3.607l-3.146-14.258zm-4.795 9.195c.32-.819 1.549-3.987 1.549-3.987-.021.039.317-.825.518-1.362l.262 1.23.901 4.119h-3.23z"/></symbol></svg>